SplineFontDB: 3.0
FontName: Oh
FullName: Oh
FamilyName: Oh
Weight: Regular

StartChar: a
Encoding: 97 97 0
Width: 1000
VWidth: 0
Flags: HW
LayerCount: 2
Back
Fore
SplineSet
927 360 m 4
 927 331 922 285 915 257 c 0
 748 298 l 0
 752 315 756 343 756 360 c 4
 927 360 l 4
EndSplineSet
Validated: 1
EndChar

StartChar: Y
Encoding: 89 89 1
Width: 1000
VWidth: 0
Flags: H
LayerCount: 2
Back
Fore
SplineSet
243 360 m 4
 243 219 359 103 500 103 c 4
 641 103 756 219 756 360 c 4
 756 501 641 616 500 616 c 4
 359 616 243 501 243 360 c 4
72 360 m 4
 72 596 264 787 500 787 c 4
 736 787 927 596 927 360 c 4
 927 124 736 -68 500 -68 c 4
 264 -68 72 124 72 360 c 4
EndSplineSet
Validated: 1
EndChar

StartChar: y
Encoding: 121 121 2
Width: 1000
VWidth: 0
Flags: HW
LayerCount: 2
Back
Fore
SplineSet
243 360 m 4
 243 278 300 179 371 138 c 0
 404 119 462 103 500 103 c 0
 538 103 595 119 628 138 c 0
 699 179 756 278 756 360 c 0
 927 360 l 0
 927 224 831 57 713 -11 c 0
 658 -43 563 -68 500 -68 c 0
 437 -68 341 -43 286 -11 c 0
 168 57 72 223 72 359 c 4
 243 360 l 4
EndSplineSet
Validated: 1
EndChar

StartChar: z
Encoding: 122 122 3
Width: 1000
VWidth: 0
Flags: HW
LayerCount: 2
Back
Fore
SplineSet
927 360 m 4
 927 217 824 47 698 -19 c 0
 646 -46 558 -68 500 -68 c 0
 426 -68 317 -35 256 7 c 0
 154 77 72 236 72 360 c 0
 72 374 73 397 75 411 c 0
 245 390 l 0
 244 382 243 369 243 360 c 0
 243 286 293 191 354 149 c 0
 390 124 456 103 500 103 c 0
 535 103 587 117 618 133 c 0
 694 173 756 275 756 360 c 4
 927 360 l 4
EndSplineSet
Validated: 1
EndChar

StartChar: X
Encoding: 88 88 4
Width: 1000
VWidth: 0
Flags: H
LayerCount: 2
Back
Fore
SplineSet
927 360 m 4
 927 131 741 -61 512 -68 c 0
 508 -68 504 -68 500 -68 c 0
 278 -68 86 112 73 334 c 0
 73 341 72 353 72 360 c 0
 72 576 246 766 461 786 c 0
 472 787 489 787 500 787 c 0
 709 787 899 619 924 411 c 0
 754 390 l 0
 739 514 625 616 500 616 c 0
 494 616 482 615 476 614 c 0
 347 602 243 489 243 360 c 0
 243 356 244 348 244 344 c 0
 252 211 367 103 500 103 c 0
 502 103 505 104 507 104 c 0
 644 108 756 223 756 360 c 4
 927 360 l 4
EndSplineSet
Validated: 1
EndChar

StartChar: W
Encoding: 87 87 5
Width: 1000
VWidth: 0
Flags: HW
LayerCount: 2
Back
Fore
SplineSet
927 360 m 4
 927 138 747 -55 525 -68 c 0
 518 -68 507 -68 500 -68 c 0
 291 -68 100 100 75 308 c 0
 73 322 72 346 72 360 c 0
 72 557 228 745 422 780 c 0
 443 784 479 787 500 787 c 0
 685 787 871 642 915 462 c 0
 748 421 l 0
 722 529 611 616 500 616 c 0
 487 616 466 613 453 611 c 0
 337 590 243 478 243 360 c 0
 243 351 244 337 245 329 c 0
 260 205 375 103 500 103 c 0
 504 103 511 104 515 104 c 0
 648 112 756 227 756 360 c 4
 927 360 l 4
EndSplineSet
Validated: 1
EndChar

StartChar: V
Encoding: 86 86 6
Width: 1000
VWidth: 0
Flags: H
LayerCount: 2
Back
Fore
SplineSet
927 360 m 4
 927 144 753 -47 538 -67 c 0
 527 -68 511 -68 500 -68 c 0
 303 -68 114 88 79 282 c 0
 75 303 72 339 72 360 c 0
 72 539 212 724 385 772 c 0
 416 781 468 787 500 787 c 0
 663 787 841 663 899 511 c 0
 739 450 l 0
 704 541 598 616 500 616 c 0
 481 616 450 611 431 606 c 0
 328 577 243 467 243 360 c 0
 243 347 246 326 248 313 c 0
 269 197 382 103 500 103 c 0
 506 103 517 104 523 105 c 0
 652 117 756 231 756 360 c 4
 927 360 l 4
EndSplineSet
Validated: 1
EndChar

StartChar: U
Encoding: 85 85 7
Width: 1000
VWidth: 0
Flags: H
LayerCount: 2
Back
Fore
SplineSet
927 360 m 4
 927 151 759 -40 551 -65 c 0
 537 -67 514 -68 500 -68 c 0
 315 -68 128 77 84 257 c 0
 77 285 72 331 72 360 c 0
 72 523 196 702 348 760 c 0
 388 775 457 787 500 787 c 0
 643 787 812 684 878 558 c 0
 726 478 l 0
 686 554 585 616 500 616 c 0
 474 616 433 608 409 599 c 0
 318 564 243 458 243 360 c 0
 243 343 247 315 251 298 c 0
 277 190 389 103 500 103 c 0
 509 103 522 104 530 105 c 0
 654 120 756 235 756 360 c 4
 927 360 l 4
EndSplineSet
Validated: 1
EndChar

StartChar: T
Encoding: 84 84 8
Width: 1000
VWidth: 0
Flags: H
LayerCount: 2
Back
Fore
SplineSet
927 360 m 4
 927 157 765 -32 564 -63 c 0
 546 -66 518 -68 500 -68 c 0
 326 -68 143 66 91 232 c 0
 80 266 72 324 72 360 c 0
 72 508 179 679 312 744 c 0
 361 768 446 787 500 787 c 0
 624 787 782 705 852 603 c 0
 710 505 l 0
 668 566 574 616 500 616 c 0
 467 616 416 604 387 590 c 0
 308 551 243 448 243 360 c 0
 243 338 249 304 255 283 c 0
 286 184 396 103 500 103 c 0
 511 103 527 104 538 106 c 0
 658 124 756 239 756 360 c 4
 927 360 l 4
EndSplineSet
Validated: 1
EndChar

StartChar: j
Encoding: 106 106 9
Width: 1000
VWidth: 0
Flags: H
LayerCount: 2
Back
Fore
SplineSet
927 360 m 4
 927 175 782 -12 602 -56 c 0
 561 111 l 0
 669 137 756 249 756 360 c 4
 927 360 l 4
EndSplineSet
Validated: 1
EndChar

StartChar: S
Encoding: 83 83 10
Width: 1000
VWidth: 0
Flags: H
LayerCount: 2
Back
Fore
SplineSet
927 360 m 4
 927 157 765 -32 564 -63 c 0
 546 -66 518 -68 500 -68 c 0
 326 -68 143 66 91 232 c 0
 80 266 72 324 72 360 c 0
 72 508 179 679 312 744 c 0
 361 768 446 787 500 787 c 0
 624 787 782 705 852 603 c 0
 710 505 l 0
 668 566 574 616 500 616 c 0
 467 616 416 604 387 590 c 0
 308 551 243 448 243 360 c 0
 243 338 249 304 255 283 c 0
 286 184 396 103 500 103 c 0
 511 103 527 104 538 106 c 0
 658 124 756 239 756 360 c 4
 927 360 l 4
EndSplineSet
Validated: 1
EndChar

StartChar: R
Encoding: 82 82 11
Width: 1000
VWidth: 0
Flags: H
LayerCount: 2
Back
Fore
SplineSet
927 360 m 4
 927 169 776 -19 589 -59 c 0
 564 -64 525 -68 500 -68 c 0
 347 -68 172 45 109 184 c 0
 88 230 72 309 72 360 c 0
 72 479 150 633 246 704 c 0
 308 750 422 787 500 787 c 0
 590 787 716 739 783 680 c 0
 669 551 l 0
 629 587 554 616 500 616 c 0
 454 616 385 593 348 566 c 0
 290 524 243 431 243 360 c 0
 243 330 254 282 266 254 c 0
 304 171 409 103 500 103 c 0
 515 103 538 106 553 109 c 0
 665 133 756 246 756 360 c 4
 927 360 l 4
EndSplineSet
Validated: 1
EndChar

StartChar: Q
Encoding: 81 81 12
Width: 1000
VWidth: 0
Flags: H
LayerCount: 2
Back
Fore
SplineSet
927 360 m 4
 927 175 782 -12 602 -56 c 0
 574 -63 529 -68 500 -68 c 0
 357 -68 187 35 121 161 c 0
 94 213 72 302 72 360 c 0
 72 466 136 610 216 680 c 0
 283 739 410 787 500 787 c 0
 574 787 682 754 743 712 c 0
 645 570 l 0
 609 595 544 616 500 616 c 0
 446 616 370 587 330 551 c 0
 282 509 243 424 243 360 c 0
 243 325 257 272 273 241 c 0
 313 165 415 103 500 103 c 0
 517 103 544 107 561 111 c 0
 669 137 756 249 756 360 c 4
 927 360 l 4
EndSplineSet
Validated: 1
EndChar

StartChar: P
Encoding: 80 80 13
Width: 1000
VWidth: 0
Flags: H
LayerCount: 2
Back
Fore
SplineSet
927 360 m 4
 927 181 787 -5 614 -53 c 0
 583 -62 532 -68 500 -68 c 0
 367 -68 202 24 133 138 c 0
 99 194 72 294 72 360 c 0
 72 454 124 585 188 653 c 0
 258 727 398 787 500 787 c 0
 558 787 646 765 698 738 c 0
 618 586 l 0
 587 602 535 616 500 616 c 0
 439 616 355 579 313 535 c 0
 275 494 243 416 243 360 c 0
 243 321 260 261 280 227 c 0
 321 159 420 103 500 103 c 0
 519 103 549 108 568 113 c 0
 671 142 756 253 756 360 c 4
 927 360 l 4
EndSplineSet
Validated: 1
EndChar

StartChar: O
Encoding: 79 79 14
Width: 1000
VWidth: 0
Flags: H
LayerCount: 2
Back
Fore
SplineSet
927 360 m 4
 927 186 793 3 627 -49 c 0
 593 -60 536 -68 500 -68 c 0
 376 -68 217 14 147 116 c 0
 105 177 72 286 72 360 c 0
 72 441 113 559 163 623 c 0
 234 714 385 787 500 787 c 0
 543 787 611 775 651 760 c 0
 590 599 l 0
 566 608 526 616 500 616 c 0
 431 616 340 571 298 517 c 0
 268 479 243 409 243 360 c 0
 243 316 264 250 289 214 c 0
 331 153 426 103 500 103 c 0
 522 103 555 109 576 115 c 0
 675 146 756 256 756 360 c 4
 927 360 l 4
EndSplineSet
Validated: 1
EndChar

StartChar: N
Encoding: 78 78 15
Width: 1000
VWidth: 0
Flags: H
LayerCount: 2
Back
Fore
SplineSet
927 360 m 4
 927 192 798 10 639 -45 c 0
 602 -58 540 -68 500 -68 c 0
 385 -68 234 5 163 96 c 0
 113 160 72 279 72 360 c 0
 72 430 102 533 140 592 c 0
 210 700 371 787 500 787 c 0
 529 787 574 782 602 775 c 0
 561 608 l 0
 544 612 517 616 500 616 c 0
 423 616 327 564 285 499 c 0
 262 464 243 402 243 360 c 0
 243 311 268 240 298 202 c 0
 340 148 431 103 500 103 c 0
 524 103 561 109 583 117 c 0
 678 150 756 259 756 360 c 4
 927 360 l 4
EndSplineSet
Validated: 1
EndChar

StartChar: M
Encoding: 77 77 16
Width: 1000
VWidth: 0
Flags: H
LayerCount: 2
Back
Fore
SplineSet
927 360 m 0
 927 197 803 18 651 -40 c 0
 611 -55 543 -68 500 -68 c 0
 394 -68 249 -4 179 76 c 0
 120 143 72 270 72 360 c 0
 72 418 94 506 121 558 c 0
 187 684 357 787 500 787 c 0
 514 787 537 786 551 784 c 0
 530 614 l 0
 522 615 509 616 500 616 c 0
 415 616 313 554 273 478 c 0
 257 447 243 395 243 360 c 0
 243 306 272 230 308 190 c 0
 350 142 436 103 500 103 c 0
 526 103 566 111 590 120 c 0
 681 155 756 262 756 360 c 4
 927 360 l 0
EndSplineSet
Validated: 1
EndChar

StartChar: L
Encoding: 76 76 17
Width: 1000
VWidth: 0
Flags: H
LayerCount: 2
Back
Fore
SplineSet
500 616 m 4
 406 616 299 544 263 457 c 4
 252 431 243 388 243 360 c 4
 243 301 277 219 318 178 c 4
 359 137 441 103 500 103 c 4
 528 103 571 112 597 123 c 4
 684 159 756 266 756 360 c 4
 927 360 l 4
 927 202 809 24 663 -36 c 4
 620 -54 547 -68 500 -68 c 4
 402 -68 266 -12 197 57 c 4
 128 126 72 262 72 360 c 4
 72 407 86 480 104 523 c 4
 164 669 342 787 500 787 c 4
 500 616 l 4
EndSplineSet
Validated: 1
EndChar

StartChar: K
Encoding: 75 75 18
Width: 1000
VWidth: 0
Flags: H
LayerCount: 2
Back
Fore
SplineSet
927 360 m 4
 927 133 744 -59 517 -68 c 0
 512 -68 505 -68 500 -68 c 0
 282 -68 91 108 73 325 c 0
 72 334 72 350 72 360 c 0
 72 569 240 759 448 784 c 0
 469 614 l 0
 345 599 243 485 243 360 c 0
 243 354 244 345 244 339 c 0
 254 209 370 103 500 103 c 0
 503 103 507 104 510 104 c 0
 646 109 756 224 756 360 c 4
 927 360 l 4
EndSplineSet
Validated: 1
EndChar

StartChar: J
Encoding: 74 74 19
Width: 1000
VWidth: 0
Flags: H
LayerCount: 2
Back
Fore
SplineSet
927 360 m 4
 927 142 751 -49 534 -67 c 0
 525 -68 510 -68 500 -68 c 0
 299 -68 109 93 77 291 c 0
 74 310 72 341 72 360 c 0
 72 545 217 731 397 775 c 0
 438 608 l 0
 330 582 243 471 243 360 c 0
 243 349 245 329 247 318 c 0
 266 199 380 103 500 103 c 0
 506 103 514 104 520 104 c 0
 650 114 756 230 756 360 c 4
 927 360 l 4
EndSplineSet
Validated: 1
EndChar

StartChar: I
Encoding: 73 73 20
Width: 1000
VWidth: 0
Flags: H
LayerCount: 2
Back
Fore
SplineSet
927 360 m 4
 927 151 759 -40 551 -65 c 0
 537 -67 514 -68 500 -68 c 0
 315 -68 128 77 84 257 c 0
 77 285 72 331 72 360 c 0
 72 523 196 702 348 760 c 0
 409 599 l 0
 318 564 243 458 243 360 c 0
 243 343 247 315 251 298 c 0
 277 190 389 103 500 103 c 0
 509 103 522 104 530 105 c 0
 654 120 756 235 756 360 c 4
 927 360 l 4
EndSplineSet
Validated: 1
EndChar

StartChar: H
Encoding: 72 72 21
Width: 1000
VWidth: 0
Flags: H
LayerCount: 2
Back
Fore
SplineSet
927 360 m 4
 927 159 766 -31 568 -63 c 0
 549 -66 519 -68 500 -68 c 0
 330 -68 148 63 94 224 c 0
 82 260 72 322 72 360 c 0
 72 503 175 672 301 738 c 0
 381 586 l 0
 305 546 243 445 243 360 c 0
 243 337 250 300 257 278 c 0
 289 181 398 103 500 103 c 0
 511 103 530 105 541 107 c 0
 660 126 756 240 756 360 c 4
 927 360 l 4
EndSplineSet
Validated: 1
EndChar

StartChar: G
Encoding: 71 71 22
Width: 1000
VWidth: 0
Flags: H
LayerCount: 2
Back
Fore
SplineSet
927 360 m 4
 927 167 774 -21 585 -60 c 0
 562 -65 524 -68 500 -68 c 0
 344 -68 167 48 106 192 c 0
 87 236 72 312 72 360 c 0
 72 484 155 642 257 712 c 0
 354 570 l 0
 293 528 243 434 243 360 c 0
 243 331 253 286 264 259 c 0
 301 173 407 103 500 103 c 0
 514 103 537 106 551 109 c 0
 664 132 756 245 756 360 c 4
 927 360 l 4
EndSplineSet
Validated: 1
EndChar

StartChar: F
Encoding: 70 70 23
Width: 1000
VWidth: 0
Flags: H
LayerCount: 2
Back
Fore
SplineSet
927 360 m 4
 927 175 782 -12 602 -56 c 0
 574 -63 529 -68 500 -68 c 0
 357 -68 187 35 121 161 c 0
 94 213 72 302 72 360 c 0
 72 466 136 610 216 680 c 0
 330 551 l 0
 282 509 243 424 243 360 c 0
 243 325 257 272 273 241 c 0
 313 165 415 103 500 103 c 0
 517 103 544 107 561 111 c 0
 669 137 756 249 756 360 c 4
 927 360 l 4
EndSplineSet
Validated: 1
EndChar

StartChar: E
Encoding: 69 69 24
Width: 1000
VWidth: 0
Flags: H
LayerCount: 2
Back
Fore
SplineSet
927 360 m 4
 927 183 789 -2 619 -51 c 0
 587 -60 534 -68 500 -68 c 0
 370 -68 208 21 138 131 c 0
 101 189 72 292 72 360 c 0
 72 450 120 576 179 643 c 0
 308 529 l 0
 272 489 243 414 243 360 c 0
 243 319 261 258 283 223 c 0
 325 157 422 103 500 103 c 0
 520 103 552 108 571 114 c 0
 673 144 756 254 756 360 c 4
 927 360 l 4
EndSplineSet
Validated: 1
EndChar

StartChar: D
Encoding: 68 68 25
Width: 1000
VWidth: 0
Flags: HW
LayerCount: 2
Back
Fore
SplineSet
927 360 m 4
 927 190 796 8 635 -46 c 0
 599 -58 538 -68 500 -68 c 0
 382 -68 229 9 158 103 c 0
 111 166 72 281 72 360 c 0
 72 434 105 542 147 603 c 0
 289 505 l 0
 264 469 243 404 243 360 c 0
 243 313 267 244 295 206 c 0
 337 150 429 103 500 103 c 0
 523 103 559 110 581 117 c 0
 678 149 756 258 756 360 c 4
 927 360 l 4
EndSplineSet
Validated: 1
EndChar

StartChar: C
Encoding: 67 67 26
Width: 1000
VWidth: 0
Flags: H
LayerCount: 2
Back
Fore
SplineSet
927 360 m 4
 927 197 803 18 651 -40 c 0
 611 -55 543 -68 500 -68 c 0
 394 -68 249 -4 179 76 c 0
 120 143 72 270 72 360 c 0
 72 418 94 506 121 558 c 0
 273 479 l 0
 257 448 243 395 243 360 c 0
 243 306 272 230 308 190 c 0
 350 142 436 103 500 103 c 0
 526 103 566 111 590 120 c 0
 681 155 756 262 756 360 c 4
 927 360 l 4
EndSplineSet
Validated: 1
EndChar

StartChar: B
Encoding: 66 66 27
Width: 1000
VWidth: 0
Flags: H
LayerCount: 2
Back
Fore
SplineSet
927 360 m 4
 927 204 811 27 667 -34 c 4
 623 -53 548 -68 500 -68 c 4
 405 -68 272 -15 203 51 c 4
 130 121 72 259 72 360 c 4
 72 403 85 471 100 511 c 4
 260 450 l 4
 251 426 243 386 243 360 c 4
 243 300 279 217 322 175 c 4
 363 136 443 103 500 103 c 4
 529 103 573 113 600 124 c 4
 686 161 756 267 756 360 c 4
 927 360 l 4
EndSplineSet
Validated: 1
EndChar

StartChar: A
Encoding: 65 65 28
Width: 1000
VWidth: 0
Flags: H
LayerCount: 2
Back
Fore
SplineSet
927 360 m 4
 927 211 818 37 683 -27 c 0
 635 -50 553 -68 500 -68 c 0
 416 -68 294 -25 229 28 c 0
 142 99 72 248 72 360 c 0
 72 389 77 434 84 462 c 0
 251 421 l 0
 247 404 243 377 243 360 c 0
 243 293 286 203 338 161 c 0
 377 129 450 103 500 103 c 0
 532 103 580 114 609 128 c 0
 690 166 756 271 756 360 c 4
 927 360 l 4
EndSplineSet
Validated: 1
EndChar

StartChar: x
Encoding: 120 120 29
Width: 1000
VWidth: 0
Flags: H
LayerCount: 2
Back
Fore
SplineSet
927 360 m 4
 927 138 747 -55 525 -68 c 0
 518 -68 507 -68 500 -68 c 0
 291 -68 100 100 75 308 c 0
 245 329 l 0
 260 205 375 103 500 103 c 0
 504 103 511 104 515 104 c 0
 648 112 756 227 756 360 c 4
 927 360 l 4
EndSplineSet
Validated: 1
EndChar

StartChar: w
Encoding: 119 119 30
Width: 1000
VWidth: 0
Flags: HW
LayerCount: 2
Back
Fore
SplineSet
927 360 m 4
 927 151 759 -40 551 -65 c 0
 537 -67 514 -68 500 -68 c 0
 315 -68 128 77 84 257 c 0
 251 298 l 0
 277 190 389 103 500 103 c 0
 509 103 522 104 530 105 c 0
 654 120 756 235 756 360 c 4
 927 360 l 4
EndSplineSet
Validated: 1
EndChar

StartChar: v
Encoding: 118 118 31
Width: 1000
VWidth: 0
Flags: H
LayerCount: 2
Back
Fore
SplineSet
927 360 m 0
 927 163 771 -26 577 -61 c 0
 556 -65 521 -68 500 -68 c 0
 337 -68 158 56 100 208 c 0
 260 269 l 4
 295 178 402 103 500 103 c 4
 513 103 533 106 546 108 c 4
 662 129 756 242 756 360 c 0
 927 360 l 0
EndSplineSet
Validated: 1
EndChar

StartChar: u
Encoding: 117 117 32
Width: 1000
VWidth: 0
Flags: H
LayerCount: 2
Back
Fore
SplineSet
927 360 m 4
 927 175 782 -12 602 -56 c 0
 574 -63 529 -68 500 -68 c 0
 357 -68 187 35 121 161 c 0
 273 241 l 0
 313 165 415 103 500 103 c 0
 517 103 544 107 561 111 c 0
 669 137 756 249 756 360 c 4
 927 360 l 4
EndSplineSet
Validated: 1
EndChar

StartChar: t
Encoding: 116 116 33
Width: 1000
VWidth: 0
Flags: H
LayerCount: 2
Back
Fore
SplineSet
927 360 m 4
 927 175 782 -12 602 -56 c 0
 574 -63 529 -68 500 -68 c 0
 357 -68 187 35 121 161 c 0
 273 241 l 0
 313 165 415 103 500 103 c 0
 517 103 544 107 561 111 c 0
 669 137 756 249 756 360 c 4
 927 360 l 4
EndSplineSet
Validated: 1
EndChar

StartChar: s
Encoding: 115 115 34
Width: 1000
VWidth: 0
Flags: H
LayerCount: 2
Back
Fore
SplineSet
927 360 m 4
 927 197 803 18 651 -40 c 0
 611 -55 543 -68 500 -68 c 0
 394 -68 249 -4 179 76 c 0
 308 190 l 0
 350 142 436 103 500 103 c 0
 526 103 566 111 590 120 c 0
 681 155 756 262 756 360 c 4
 927 360 l 4
EndSplineSet
Validated: 1
EndChar

StartChar: r
Encoding: 114 114 35
Width: 1000
VWidth: 0
Flags: H
LayerCount: 2
Back
Fore
SplineSet
927 360 m 4
 927 207 814 32 675 -31 c 0
 629 -52 551 -68 500 -68 c 0
 410 -68 283 -20 216 39 c 0
 330 168 l 0
 370 132 446 103 500 103 c 0
 530 103 577 114 605 126 c 0
 688 164 756 269 756 360 c 4
 927 360 l 4
EndSplineSet
Validated: 1
EndChar

StartChar: q
Encoding: 113 113 36
Width: 1000
VWidth: 0
Flags: H
LayerCount: 2
Back
Fore
SplineSet
927 360 m 4
 927 217 824 47 698 -19 c 0
 646 -46 558 -68 500 -68 c 0
 426 -68 317 -35 256 7 c 0
 354 149 l 0
 390 124 456 103 500 103 c 0
 535 103 587 117 618 133 c 0
 694 173 756 275 756 360 c 4
 927 360 l 4
EndSplineSet
Validated: 1
EndChar

StartChar: p
Encoding: 112 112 37
Width: 1000
VWidth: 0
Flags: H
LayerCount: 2
Back
Fore
SplineSet
927 360 m 4
 927 227 835 62 721 -7 c 0
 665 -41 566 -68 500 -68 c 0
 442 -68 353 -46 301 -19 c 0
 381 133 l 0
 412 117 465 103 500 103 c 0
 539 103 598 120 632 140 c 0
 700 181 756 280 756 360 c 4
 927 360 l 4
EndSplineSet
Validated: 1
EndChar

StartChar: o
Encoding: 111 111 38
Width: 1000
VWidth: 0
Flags: H
LayerCount: 2
Back
Fore
SplineSet
927 360 m 4
 927 236 845 77 743 7 c 0
 682 -35 574 -68 500 -68 c 0
 457 -68 388 -55 348 -40 c 0
 409 120 l 0
 433 111 474 103 500 103 c 0
 544 103 609 124 645 149 c 0
 706 191 756 286 756 360 c 4
 927 360 l 4
EndSplineSet
Validated: 1
EndChar

StartChar: n
Encoding: 110 110 39
Width: 1000
VWidth: 0
Flags: H
LayerCount: 2
Back
Fore
SplineSet
927 360 m 4
 927 245 854 94 763 23 c 0
 699 -27 581 -68 500 -68 c 0
 471 -68 425 -63 397 -56 c 0
 438 111 l 0
 455 107 483 103 500 103 c 0
 549 103 619 128 657 158 c 0
 711 200 756 291 756 360 c 4
 927 360 l 4
EndSplineSet
Validated: 1
EndChar

StartChar: m
Encoding: 109 109 40
Width: 1000
VWidth: 0
Flags: H
LayerCount: 2
Back
Fore
SplineSet
927 360 m 4
 927 254 863 109 783 39 c 0
 716 -20 590 -68 500 -68 c 0
 486 -68 462 -67 448 -65 c 0
 469 105 l 0
 477 104 491 103 500 103 c 0
 554 103 629 132 669 168 c 0
 717 210 756 296 756 360 c 4
 927 360 l 4
EndSplineSet
Validated: 1
EndChar

StartChar: l
Encoding: 108 108 41
Width: 1000
VWidth: 0
Flags: H
LayerCount: 2
Back
Fore
SplineSet
927 360 m 4
 927 262 871 126 802 57 c 0
 733 -12 598 -68 500 -68 c 0
 499 -68 l 0
 499 103 l 0
 500 103 l 0
 559 103 640 137 681 178 c 0
 722 219 756 301 756 360 c 4
 927 360 l 4
EndSplineSet
Validated: 1
EndChar

StartChar: k
Encoding: 107 107 42
Width: 1000
VWidth: 0
Flags: H
LayerCount: 2
Back
Fore
SplineSet
927 360 m 4
 927 151 759 -40 551 -65 c 0
 530 105 l 0
 654 120 756 235 756 360 c 4
 927 360 l 4
EndSplineSet
Validated: 1
EndChar

StartChar: i
Encoding: 105 105 43
Width: 1000
VWidth: 0
Flags: H
LayerCount: 2
Back
Fore
SplineSet
927 360 m 4
 927 197 803 18 651 -40 c 0
 590 120 l 0
 681 155 756 262 756 360 c 4
 927 360 l 4
EndSplineSet
Validated: 1
EndChar

StartChar: h
Encoding: 104 104 44
Width: 1000
VWidth: 0
Flags: H
LayerCount: 2
Back
Fore
SplineSet
927 360 m 4
 927 217 824 47 698 -19 c 0
 618 133 l 0
 694 173 756 275 756 360 c 4
 927 360 l 4
EndSplineSet
Validated: 1
EndChar

StartChar: g
Encoding: 103 103 45
Width: 1000
VWidth: 0
Flags: H
LayerCount: 2
Back
Fore
SplineSet
927 360 m 4
 927 236 844 77 742 7 c 0
 645 149 l 0
 706 191 756 286 756 360 c 4
 927 360 l 4
EndSplineSet
Validated: 1
EndChar

StartChar: f
Encoding: 102 102 46
Width: 1000
VWidth: 0
Flags: H
LayerCount: 2
Back
Fore
SplineSet
927 360 m 4
 927 254 863 109 783 39 c 0
 669 169 l 0
 717 211 756 296 756 360 c 4
 927 360 l 4
EndSplineSet
Validated: 1
EndChar

StartChar: e
Encoding: 101 101 47
Width: 1000
VWidth: 0
Flags: H
LayerCount: 2
Back
Fore
SplineSet
927 360 m 4
 927 270 879 143 820 76 c 0
 691 190 l 0
 727 230 756 306 756 360 c 4
 927 360 l 4
EndSplineSet
Validated: 1
EndChar

StartChar: d
Encoding: 100 100 48
Width: 1000
VWidth: 0
Flags: H
LayerCount: 2
Back
Fore
SplineSet
927 360 m 4
 927 286 894 177 852 116 c 0
 710 214 l 0
 735 250 756 316 756 360 c 4
 927 360 l 4
EndSplineSet
Validated: 1
EndChar

StartChar: c
Encoding: 99 99 49
Width: 1000
VWidth: 0
Flags: H
LayerCount: 2
Back
Fore
SplineSet
927 360 m 4
 927 302 905 213 878 161 c 0
 726 242 l 0
 742 273 756 325 756 360 c 4
 927 360 l 4
EndSplineSet
Validated: 1
EndChar

StartChar: b
Encoding: 98 98 50
Width: 1000
VWidth: 0
Flags: H
LayerCount: 2
Back
Fore
SplineSet
927 360 m 4
 927 317 914 248 899 208 c 0
 739 269 l 0
 748 293 756 334 756 360 c 4
 927 360 l 4
EndSplineSet
Validated: 1
EndChar

StartChar: period
Encoding: 46 46 51
Width: 1000
VWidth: 0
Flags: HW
LayerCount: 2
Back
Fore
SplineSet
927 360 m 4
 927 346 926 322 924 308 c 0
 754 329 l 0
 755 337 756 351 756 360 c 4
 927 360 l 4
EndSplineSet
Validated: 1
EndChar

StartChar: Z
Encoding: 90 90 52
Width: 1000
VWidth: 0
Flags: HW
LayerCount: 2
Back
Fore
SplineSet
220 360 m 4
 220 514 346 639 500 639 c 4
 654 639 779 514 779 360 c 0
 779 206 654 80 500 80 c 0
 346 80 220 206 220 360 c 4
97 360 m 0
 97 138 278 -43 500 -43 c 0
 722 -43 902 138 902 360 c 0
 902 582 722 762 500 762 c 0
 278 762 97 582 97 360 c 0
243 360 m 4
 243 219 359 103 500 103 c 4
 641 103 756 219 756 360 c 4
 756 501 641 616 500 616 c 4
 359 616 243 501 243 360 c 4
72 360 m 0
 72 596 264 787 500 787 c 0
 736 787 927 596 927 360 c 0
 927 124 736 -68 500 -68 c 0
 264 -68 72 124 72 360 c 0
EndSplineSet
Validated: 1
EndChar

StartChar: exclamdown
Encoding: 161 161 53
Width: 1000
VWidth: 0
Flags: H
LayerCount: 2
Back
Fore
SplineSet
72 360 m 0
 72 596 264 787 500 787 c 0
 736 787 927 596 927 360 c 0
 927 124 736 -68 500 -68 c 0
 264 -68 72 124 72 360 c 0
EndSplineSet
Validated: 1
EndChar

StartChar: cent
Encoding: 162 162 54
Width: 1000
VWidth: 0
Flags: H
LayerCount: 2
Back
Fore
SplineSet
927 360 m 1
 927 131 741 -61 512 -68 c 0
 508 -68 504 -68 500 -68 c 0
 278 -68 86 112 73 334 c 0
 73 341 72 353 72 360 c 0
 72 576 246 766 461 786 c 0
 472 787 489 787 500 787 c 0
 709 787 899 619 924 411 c 1
 500 360 l 1
 927 360 l 1
EndSplineSet
Validated: 1
EndChar

StartChar: sterling
Encoding: 163 163 55
Width: 1000
VWidth: 0
Flags: H
LayerCount: 2
Back
Fore
SplineSet
927 360 m 1
 927 138 747 -55 525 -68 c 0
 518 -68 507 -68 500 -68 c 0
 291 -68 100 100 75 308 c 0
 73 322 72 346 72 360 c 0
 72 557 228 745 422 780 c 0
 443 784 479 787 500 787 c 0
 685 787 871 642 915 462 c 1
 500 360 l 1
 927 360 l 1
EndSplineSet
Validated: 1
EndChar

StartChar: currency
Encoding: 164 164 56
Width: 1000
VWidth: 0
Flags: H
LayerCount: 2
Back
Fore
SplineSet
927 360 m 1
 927 144 753 -47 538 -67 c 0
 527 -68 511 -68 500 -68 c 0
 303 -68 114 88 79 282 c 0
 75 303 72 339 72 360 c 0
 72 539 212 724 385 772 c 0
 416 781 468 787 500 787 c 0
 663 787 841 663 899 511 c 1
 500 360 l 1
 927 360 l 1
EndSplineSet
Validated: 1
EndChar

StartChar: yen
Encoding: 165 165 57
Width: 1000
VWidth: 0
Flags: H
LayerCount: 2
Back
Fore
SplineSet
927 360 m 1
 927 151 759 -40 551 -65 c 0
 537 -67 514 -68 500 -68 c 0
 315 -68 128 77 84 257 c 0
 77 285 72 331 72 360 c 0
 72 523 196 702 348 760 c 0
 388 775 457 787 500 787 c 0
 643 787 812 684 878 558 c 1
 500 360 l 1
 927 360 l 1
EndSplineSet
Validated: 1
EndChar

StartChar: brokenbar
Encoding: 166 166 58
Width: 1000
VWidth: 0
Flags: H
LayerCount: 2
Back
Fore
SplineSet
927 360 m 1
 927 157 765 -32 564 -63 c 0
 546 -66 518 -68 500 -68 c 0
 326 -68 143 66 91 232 c 0
 80 266 72 324 72 360 c 0
 72 508 179 679 312 744 c 0
 361 768 446 787 500 787 c 0
 624 787 782 705 852 603 c 1
 500 360 l 1
 927 360 l 1
EndSplineSet
Validated: 1
EndChar

StartChar: section
Encoding: 167 167 59
Width: 1000
VWidth: 0
Flags: H
LayerCount: 2
Back
Fore
SplineSet
927 360 m 1
 927 163 771 -26 577 -61 c 0
 556 -65 521 -68 500 -68 c 0
 337 -68 158 56 100 208 c 0
 85 248 72 317 72 360 c 0
 72 493 164 657 278 726 c 0
 334 760 434 787 500 787 c 0
 606 787 750 723 820 643 c 1
 500 360 l 1
 927 360 l 1
EndSplineSet
Validated: 1
EndChar

StartChar: dieresis
Encoding: 168 168 60
Width: 1000
VWidth: 0
Flags: H
LayerCount: 2
Back
Fore
SplineSet
927 360 m 1
 927 169 776 -19 589 -59 c 0
 564 -64 525 -68 500 -68 c 0
 347 -68 172 45 109 184 c 0
 88 230 72 309 72 360 c 0
 72 479 150 633 246 704 c 0
 308 750 422 787 500 787 c 0
 590 787 716 739 783 680 c 1
 500 360 l 1
 927 360 l 1
EndSplineSet
Validated: 1
EndChar

StartChar: copyright
Encoding: 169 169 61
Width: 1000
VWidth: 0
Flags: H
LayerCount: 2
Back
Fore
SplineSet
927 360 m 1
 927 175 782 -12 602 -56 c 0
 574 -63 529 -68 500 -68 c 0
 357 -68 187 35 121 161 c 0
 94 213 72 302 72 360 c 0
 72 466 136 610 216 680 c 0
 283 739 410 787 500 787 c 0
 574 787 682 754 743 712 c 1
 500 360 l 1
 927 360 l 1
EndSplineSet
Validated: 1
EndChar

StartChar: ordfeminine
Encoding: 170 170 62
Width: 1000
VWidth: 0
Flags: H
LayerCount: 2
Back
Fore
SplineSet
927 360 m 1
 927 181 787 -5 614 -53 c 0
 583 -62 532 -68 500 -68 c 0
 367 -68 202 24 133 138 c 0
 99 194 72 294 72 360 c 0
 72 454 124 585 188 653 c 0
 258 727 398 787 500 787 c 0
 558 787 646 765 698 738 c 1
 500 360 l 1
 927 360 l 1
EndSplineSet
Validated: 1
EndChar

StartChar: guillemotleft
Encoding: 171 171 63
Width: 1000
VWidth: 0
Flags: H
LayerCount: 2
Back
Fore
SplineSet
927 360 m 1
 927 186 793 3 627 -49 c 0
 593 -60 536 -68 500 -68 c 0
 376 -68 217 14 147 116 c 0
 105 177 72 286 72 360 c 0
 72 441 113 559 163 623 c 0
 234 714 385 787 500 787 c 0
 543 787 611 775 651 760 c 1
 500 360 l 5
 927 360 l 1
EndSplineSet
Validated: 1
EndChar

StartChar: logicalnot
Encoding: 172 172 64
Width: 1000
VWidth: 0
Flags: H
LayerCount: 2
Back
Fore
SplineSet
927 360 m 1
 927 192 798 10 639 -45 c 0
 602 -58 540 -68 500 -68 c 0
 385 -68 234 5 163 96 c 0
 113 160 72 279 72 360 c 0
 72 430 102 533 140 592 c 0
 210 700 371 787 500 787 c 0
 529 787 574 782 602 775 c 1
 500 360 l 1
 927 360 l 1
EndSplineSet
Validated: 1
EndChar

StartChar: uni00AD
Encoding: 173 173 65
Width: 1000
VWidth: 0
Flags: H
LayerCount: 2
Back
Fore
SplineSet
927 360 m 1
 927 197 803 18 651 -40 c 0
 611 -55 543 -68 500 -68 c 0
 394 -68 249 -4 179 76 c 0
 120 143 72 270 72 360 c 0
 72 418 94 506 121 558 c 0
 187 684 357 787 500 787 c 0
 514 787 537 786 551 784 c 1
 500 360 l 1
 927 360 l 1
EndSplineSet
Validated: 1
EndChar

StartChar: registered
Encoding: 174 174 66
Width: 1000
VWidth: 0
Flags: H
LayerCount: 2
Back
Fore
SplineSet
500 360 m 5
 927 360 l 1
 927 202 809 24 663 -36 c 0
 620 -54 547 -68 500 -68 c 0
 402 -68 266 -12 197 57 c 0
 128 126 72 262 72 360 c 0
 72 407 86 480 104 523 c 0
 164 669 342 787 500 787 c 4
 500 360 l 5
EndSplineSet
Validated: 1
EndChar

StartChar: macron
Encoding: 175 175 67
Width: 1000
VWidth: 0
Flags: H
LayerCount: 2
Back
Fore
SplineSet
927 360 m 1
 927 133 744 -59 517 -68 c 0
 512 -68 505 -68 500 -68 c 0
 282 -68 91 108 73 325 c 0
 72 334 72 350 72 360 c 0
 72 569 240 759 448 784 c 1
 500 360 l 1
 927 360 l 1
EndSplineSet
Validated: 1
EndChar

StartChar: degree
Encoding: 176 176 68
Width: 1000
VWidth: 0
Flags: H
LayerCount: 2
Back
Fore
SplineSet
927 360 m 1
 927 142 751 -49 534 -67 c 0
 525 -68 510 -68 500 -68 c 0
 299 -68 109 93 77 291 c 0
 74 310 72 341 72 360 c 0
 72 545 217 731 397 775 c 1
 500 360 l 1
 927 360 l 1
EndSplineSet
Validated: 1
EndChar

StartChar: plusminus
Encoding: 177 177 69
Width: 1000
VWidth: 0
Flags: H
LayerCount: 2
Back
Fore
SplineSet
927 360 m 1
 927 151 759 -40 551 -65 c 0
 537 -67 514 -68 500 -68 c 0
 315 -68 128 77 84 257 c 0
 77 285 72 331 72 360 c 0
 72 523 196 702 348 760 c 1
 500 360 l 1
 927 360 l 1
EndSplineSet
Validated: 1
EndChar

StartChar: uni00B2
Encoding: 178 178 70
Width: 1000
VWidth: 0
Flags: H
LayerCount: 2
Back
Fore
SplineSet
927 360 m 1
 927 159 766 -31 568 -63 c 0
 549 -66 519 -68 500 -68 c 0
 330 -68 148 63 94 224 c 0
 82 260 72 322 72 360 c 0
 72 503 175 672 301 738 c 1
 500 360 l 1
 927 360 l 1
EndSplineSet
Validated: 1
EndChar

StartChar: uni00B3
Encoding: 179 179 71
Width: 1000
VWidth: 0
Flags: H
LayerCount: 2
Back
Fore
SplineSet
927 360 m 1
 927 167 774 -21 585 -60 c 0
 562 -65 524 -68 500 -68 c 0
 344 -68 167 48 106 192 c 0
 87 236 72 312 72 360 c 0
 72 484 155 642 257 712 c 1
 500 360 l 1
 927 360 l 1
EndSplineSet
Validated: 1
EndChar

StartChar: acute
Encoding: 180 180 72
Width: 1000
VWidth: 0
Flags: H
LayerCount: 2
Back
Fore
SplineSet
927 360 m 1
 927 175 782 -12 602 -56 c 0
 574 -63 529 -68 500 -68 c 0
 357 -68 187 35 121 161 c 0
 94 213 72 302 72 360 c 0
 72 466 136 610 216 680 c 1
 500 360 l 1
 927 360 l 1
EndSplineSet
Validated: 1
EndChar

StartChar: mu
Encoding: 181 181 73
Width: 1000
VWidth: 0
Flags: H
LayerCount: 2
Back
Fore
SplineSet
927 360 m 1
 927 183 789 -2 619 -51 c 0
 587 -60 534 -68 500 -68 c 0
 370 -68 208 21 138 131 c 0
 101 189 72 292 72 360 c 0
 72 450 120 576 179 643 c 1
 500 360 l 1
 927 360 l 1
EndSplineSet
Validated: 1
EndChar

StartChar: paragraph
Encoding: 182 182 74
Width: 1000
VWidth: 0
Flags: H
LayerCount: 2
Back
Fore
SplineSet
927 360 m 1
 927 190 796 8 635 -46 c 0
 599 -58 538 -68 500 -68 c 0
 382 -68 229 9 158 103 c 0
 111 166 72 281 72 360 c 0
 72 434 105 542 147 603 c 1
 500 360 l 1
 927 360 l 1
EndSplineSet
Validated: 1
EndChar

StartChar: periodcentered
Encoding: 183 183 75
Width: 1000
VWidth: 0
Flags: H
LayerCount: 2
Back
Fore
SplineSet
927 360 m 1
 927 197 803 18 651 -40 c 0
 611 -55 543 -68 500 -68 c 0
 394 -68 249 -4 179 76 c 0
 120 143 72 270 72 360 c 0
 72 418 94 506 121 558 c 1
 500 360 l 1
 927 360 l 1
EndSplineSet
Validated: 1
EndChar

StartChar: cedilla
Encoding: 184 184 76
Width: 1000
VWidth: 0
Flags: H
LayerCount: 2
Back
Fore
SplineSet
927 360 m 1
 927 204 811 27 667 -34 c 0
 623 -53 548 -68 500 -68 c 0
 405 -68 272 -15 203 51 c 0
 130 121 72 259 72 360 c 0
 72 403 85 471 100 511 c 1
 500 360 l 1
 927 360 l 1
EndSplineSet
Validated: 1
EndChar

StartChar: uni00B9
Encoding: 185 185 77
Width: 1000
VWidth: 0
Flags: H
LayerCount: 2
Back
Fore
SplineSet
927 360 m 1
 927 211 818 37 683 -27 c 0
 635 -50 553 -68 500 -68 c 0
 416 -68 294 -25 229 28 c 0
 142 99 72 248 72 360 c 0
 72 389 77 434 84 462 c 1
 500 360 l 1
 927 360 l 1
EndSplineSet
Validated: 1
EndChar

StartChar: ordmasculine
Encoding: 186 186 78
Width: 1000
VWidth: 0
Flags: H
LayerCount: 2
Back
Fore
SplineSet
927 360 m 1
 927 217 824 47 698 -19 c 0
 646 -46 558 -68 500 -68 c 0
 426 -68 317 -35 256 7 c 0
 154 77 72 236 72 360 c 0
 72 374 73 397 75 411 c 1
 500 360 l 1
 927 360 l 1
EndSplineSet
Validated: 1
EndChar

StartChar: guillemotright
Encoding: 187 187 79
Width: 1000
VWidth: 0
Flags: H
LayerCount: 2
Back
Fore
SplineSet
500 360 m 5
 927 360 l 1
 927 224 831 57 713 -11 c 0
 658 -43 563 -68 500 -68 c 0
 437 -68 341 -43 286 -11 c 0
 168 57 72 224 72 360 c 4
 500 360 l 5
EndSplineSet
Validated: 1
EndChar

StartChar: onequarter
Encoding: 188 188 80
Width: 1000
VWidth: 0
Flags: H
LayerCount: 2
Back
Fore
SplineSet
927 360 m 1
 927 138 747 -55 525 -68 c 0
 518 -68 507 -68 500 -68 c 0
 291 -68 100 100 75 308 c 1
 500 360 l 1
 927 360 l 1
EndSplineSet
Validated: 1
EndChar

StartChar: onehalf
Encoding: 189 189 81
Width: 1000
VWidth: 0
Flags: H
LayerCount: 2
Back
Fore
SplineSet
927 360 m 1
 927 151 759 -40 551 -65 c 0
 537 -67 514 -68 500 -68 c 0
 315 -68 128 77 84 257 c 1
 500 360 l 1
 927 360 l 1
EndSplineSet
Validated: 1
EndChar

StartChar: threequarters
Encoding: 190 190 82
Width: 1000
VWidth: 0
Flags: H
LayerCount: 2
Back
Fore
SplineSet
927 360 m 1
 927 163 771 -26 577 -61 c 0
 556 -65 521 -68 500 -68 c 0
 337 -68 158 56 100 208 c 1
 500 360 l 1
 927 360 l 1
EndSplineSet
Validated: 1
EndChar

StartChar: questiondown
Encoding: 191 191 83
Width: 1000
VWidth: 0
Flags: H
LayerCount: 2
Back
Fore
SplineSet
927 360 m 1
 927 175 782 -12 602 -56 c 0
 574 -63 529 -68 500 -68 c 0
 357 -68 187 35 121 161 c 1
 500 360 l 1
 927 360 l 1
EndSplineSet
Validated: 1
EndChar

StartChar: Agrave
Encoding: 192 192 84
Width: 1000
VWidth: 0
Flags: H
LayerCount: 2
Back
Fore
SplineSet
927 360 m 1
 927 186 793 3 627 -49 c 0
 593 -60 536 -68 500 -68 c 0
 376 -68 217 15 147 117 c 1
 500 360 l 1
 927 360 l 1
EndSplineSet
Validated: 1
EndChar

StartChar: Aacute
Encoding: 193 193 85
Width: 1000
VWidth: 0
Flags: H
LayerCount: 2
Back
Fore
SplineSet
927 360 m 1
 927 197 803 18 651 -40 c 0
 611 -55 543 -68 500 -68 c 0
 394 -68 249 -4 179 76 c 1
 500 360 l 1
 927 360 l 1
EndSplineSet
Validated: 1
EndChar

StartChar: Acircumflex
Encoding: 194 194 86
Width: 1000
VWidth: 0
Flags: H
LayerCount: 2
Back
Fore
SplineSet
927 360 m 1
 927 207 814 32 675 -31 c 0
 629 -52 551 -68 500 -68 c 0
 410 -68 283 -20 216 39 c 1
 500 360 l 1
 927 360 l 1
EndSplineSet
Validated: 1
EndChar

StartChar: Atilde
Encoding: 195 195 87
Width: 1000
VWidth: 0
Flags: H
LayerCount: 2
Back
Fore
SplineSet
927 360 m 1
 927 217 824 47 698 -19 c 0
 646 -46 558 -68 500 -68 c 0
 426 -68 317 -35 256 7 c 1
 500 360 l 1
 927 360 l 1
EndSplineSet
Validated: 1
EndChar

StartChar: Adieresis
Encoding: 196 196 88
Width: 1000
VWidth: 0
Flags: H
LayerCount: 2
Back
Fore
SplineSet
927 360 m 1
 927 227 835 62 721 -7 c 0
 665 -41 566 -68 500 -68 c 0
 442 -68 353 -46 301 -19 c 1
 500 360 l 1
 927 360 l 1
EndSplineSet
Validated: 1
EndChar

StartChar: Aring
Encoding: 197 197 89
Width: 1000
VWidth: 0
Flags: H
LayerCount: 2
Back
Fore
SplineSet
927 360 m 1
 927 236 845 77 743 7 c 0
 682 -35 574 -68 500 -68 c 0
 457 -68 388 -55 348 -40 c 1
 500 360 l 1
 927 360 l 1
EndSplineSet
Validated: 1
EndChar

StartChar: AE
Encoding: 198 198 90
Width: 1000
VWidth: 0
Flags: H
LayerCount: 2
Back
Fore
SplineSet
927 360 m 1
 927 245 854 94 763 23 c 0
 699 -27 581 -68 500 -68 c 0
 471 -68 425 -63 397 -56 c 1
 500 360 l 1
 927 360 l 1
EndSplineSet
Validated: 1
EndChar

StartChar: Ccedilla
Encoding: 199 199 91
Width: 1000
VWidth: 0
Flags: H
LayerCount: 2
Back
Fore
SplineSet
927 360 m 1
 927 254 863 109 783 39 c 0
 716 -20 590 -68 500 -68 c 0
 486 -68 462 -67 448 -65 c 1
 500 360 l 1
 927 360 l 1
EndSplineSet
Validated: 1
EndChar

StartChar: Egrave
Encoding: 200 200 92
Width: 1000
VWidth: 0
Flags: H
LayerCount: 2
Back
Fore
SplineSet
927 360 m 1
 927 262 871 126 802 57 c 0
 733 -12 598 -68 500 -68 c 0
 499 -68 l 2
 500 360 l 1
 927 360 l 1
EndSplineSet
Validated: 1
EndChar

StartChar: Eacute
Encoding: 201 201 93
Width: 1000
VWidth: 0
Flags: H
LayerCount: 2
Back
Fore
SplineSet
927 360 m 1
 927 151 759 -40 551 -65 c 1
 500 360 l 1
 927 360 l 1
EndSplineSet
Validated: 1
EndChar

StartChar: Ecircumflex
Encoding: 202 202 94
Width: 1000
VWidth: 0
Flags: H
LayerCount: 2
Back
Fore
SplineSet
927 360 m 1
 927 175 782 -12 602 -56 c 1
 500 360 l 1
 927 360 l 1
EndSplineSet
Validated: 1
EndChar

StartChar: Edieresis
Encoding: 203 203 95
Width: 1000
VWidth: 0
Flags: H
LayerCount: 2
Back
Fore
SplineSet
927 360 m 1
 927 197 803 18 651 -40 c 1
 500 360 l 1
 927 360 l 1
EndSplineSet
Validated: 1
EndChar

StartChar: Igrave
Encoding: 204 204 96
Width: 1000
VWidth: 0
Flags: H
LayerCount: 2
Back
Fore
SplineSet
927 360 m 1
 927 217 824 47 698 -19 c 1
 500 360 l 1
 927 360 l 1
EndSplineSet
Validated: 1
EndChar

StartChar: Iacute
Encoding: 205 205 97
Width: 1000
VWidth: 0
Flags: H
LayerCount: 2
Back
Fore
SplineSet
927 360 m 1
 927 236 844 77 742 7 c 1
 500 360 l 1
 927 360 l 1
EndSplineSet
Validated: 1
EndChar

StartChar: Icircumflex
Encoding: 206 206 98
Width: 1000
VWidth: 0
Flags: H
LayerCount: 2
Back
Fore
SplineSet
927 360 m 1
 927 254 863 109 783 39 c 1
 500 360 l 1
 927 360 l 1
EndSplineSet
Validated: 1
EndChar

StartChar: Idieresis
Encoding: 207 207 99
Width: 1000
VWidth: 0
Flags: H
LayerCount: 2
Back
Fore
SplineSet
927 360 m 1
 927 270 879 143 820 76 c 1
 500 360 l 1
 927 360 l 1
EndSplineSet
Validated: 1
EndChar

StartChar: Eth
Encoding: 208 208 100
Width: 1000
VWidth: 0
Flags: H
LayerCount: 2
Back
Fore
SplineSet
927 360 m 1
 927 286 894 177 852 116 c 1
 500 360 l 1
 927 360 l 1
EndSplineSet
Validated: 1
EndChar

StartChar: Ntilde
Encoding: 209 209 101
Width: 1000
VWidth: 0
Flags: H
LayerCount: 2
Back
Fore
SplineSet
927 360 m 1
 927 302 905 213 878 161 c 1
 500 360 l 1
 927 360 l 1
EndSplineSet
Validated: 1
EndChar

StartChar: Ograve
Encoding: 210 210 102
Width: 1000
VWidth: 0
Flags: H
LayerCount: 2
Back
Fore
SplineSet
927 360 m 1
 927 317 914 248 899 208 c 1
 500 360 l 1
 927 360 l 1
EndSplineSet
Validated: 1
EndChar

StartChar: Oacute
Encoding: 211 211 103
Width: 1000
VWidth: 0
Flags: H
LayerCount: 2
Back
Fore
SplineSet
927 360 m 1
 927 331 922 285 915 257 c 1
 500 360 l 1
 927 360 l 1
EndSplineSet
Validated: 1
EndChar

StartChar: Ocircumflex
Encoding: 212 212 104
Width: 1000
VWidth: 0
Flags: H
LayerCount: 2
Back
Fore
SplineSet
927 360 m 1
 927 346 926 322 924 308 c 1
 500 360 l 1
 927 360 l 1
EndSplineSet
Validated: 1
EndChar

StartChar: Otilde
Encoding: 213 213 105
Width: 1000
VWidth: 0
Flags: HW
LayerCount: 2
Back
Fore
SplineSet
97 360 m 4
 97 138 278 -43 500 -43 c 4
 722 -43 902 138 902 360 c 4
 902 582 722 762 500 762 c 4
 278 762 97 582 97 360 c 4
72 360 m 4
 72 596 264 787 500 787 c 4
 736 787 927 596 927 360 c 4
 927 124 736 -68 500 -68 c 4
 264 -68 72 124 72 360 c 4
EndSplineSet
Validated: 1
EndChar
